<svg xmlns="http://www.w3.org/2000/svg" width="1100" height="520" viewBox="0 0 1100 520">
<rect width="100%" height="100%" fill="#ffffff" />
<text x="550.0" y="24" text-anchor="middle" font-size="18" font-family="sans-serif">Batch size sweep, independently normalized axes</text>
<line x1="80" y1="450" x2="1010" y2="450" stroke="#333" />
<line x1="80" y1="40" x2="80" y2="450" stroke="#333" />
<text x="550.0" y="510" text-anchor="middle" font-size="13" font-family="sans-serif">batch size, log2 scale</text>
<text transform="translate(18,260.0) rotate(-90)" text-anchor="middle" font-size="13" font-family="sans-serif">normalized per metric</text>
<text x="80.0" y="485" text-anchor="middle">1</text><line x1="80.0" y1="450" x2="80.0" y2="456" stroke="#555" />
<text x="212.9" y="485" text-anchor="middle">2</text><line x1="212.9" y1="450" x2="212.9" y2="456" stroke="#555" />
<text x="345.7" y="485" text-anchor="middle">4</text><line x1="345.7" y1="450" x2="345.7" y2="456" stroke="#555" />
<text x="478.6" y="485" text-anchor="middle">8</text><line x1="478.6" y1="450" x2="478.6" y2="456" stroke="#555" />
<text x="611.4" y="485" text-anchor="middle">16</text><line x1="611.4" y1="450" x2="611.4" y2="456" stroke="#555" />
<text x="744.3" y="485" text-anchor="middle">32</text><line x1="744.3" y1="450" x2="744.3" y2="456" stroke="#555" />
<text x="877.1" y="485" text-anchor="middle">64</text><line x1="877.1" y1="450" x2="877.1" y2="456" stroke="#555" />
<text x="1010.0" y="485" text-anchor="middle">128</text><line x1="1010.0" y1="450" x2="1010.0" y2="456" stroke="#555" />
<polyline points="80.0,283.7 212.9,256.1 345.7,266.3 478.6,262.9 611.4,249.5 744.3,214.2 877.1,180.9 1010.0,93.5" fill="none" stroke="#dc2626" stroke-width="2.5" />
<circle cx="80.0" cy="283.7" r="3.5" fill="#dc2626" />
<circle cx="212.9" cy="256.1" r="3.5" fill="#dc2626" />
<circle cx="345.7" cy="266.3" r="3.5" fill="#dc2626" />
<circle cx="478.6" cy="262.9" r="3.5" fill="#dc2626" />
<circle cx="611.4" cy="249.5" r="3.5" fill="#dc2626" />
<circle cx="744.3" cy="214.2" r="3.5" fill="#dc2626" />
<circle cx="877.1" cy="180.9" r="3.5" fill="#dc2626" />
<circle cx="1010.0" cy="93.5" r="3.5" fill="#dc2626" /><polyline points="80.0,444.0 212.9,439.8 345.7,428.4 478.6,407.5 611.4,370.7 744.3,315.2 877.1,213.8 1010.0,93.5" fill="none" stroke="#16a34a" stroke-width="2.5" />
<circle cx="80.0" cy="444.0" r="3.5" fill="#16a34a" />
<circle cx="212.9" cy="439.8" r="3.5" fill="#16a34a" />
<circle cx="345.7" cy="428.4" r="3.5" fill="#16a34a" />
<circle cx="478.6" cy="407.5" r="3.5" fill="#16a34a" />
<circle cx="611.4" cy="370.7" r="3.5" fill="#16a34a" />
<circle cx="744.3" cy="315.2" r="3.5" fill="#16a34a" />
<circle cx="877.1" cy="213.8" r="3.5" fill="#16a34a" />
<circle cx="1010.0" cy="93.5" r="3.5" fill="#16a34a" /><polyline points="80.0,150.5 212.9,103.2 345.7,146.6 478.6,144.1 611.4,146.6 744.3,93.5 877.1,128.2 1010.0,106.6" fill="none" stroke="#2563eb" stroke-width="2.5" />
<circle cx="80.0" cy="150.5" r="3.5" fill="#2563eb" />
<circle cx="212.9" cy="103.2" r="3.5" fill="#2563eb" />
<circle cx="345.7" cy="146.6" r="3.5" fill="#2563eb" />
<circle cx="478.6" cy="144.1" r="3.5" fill="#2563eb" />
<circle cx="611.4" cy="146.6" r="3.5" fill="#2563eb" />
<circle cx="744.3" cy="93.5" r="3.5" fill="#2563eb" />
<circle cx="877.1" cy="128.2" r="3.5" fill="#2563eb" />
<circle cx="1010.0" cy="106.6" r="3.5" fill="#2563eb" />
<text x="870" y="58" font-size="13" font-family="sans-serif" fill="#dc2626">TPOT mean ms</text><text x="870" y="80" font-size="13" font-family="sans-serif" fill="#16a34a">Throughput tok/s</text><text x="870" y="102" font-size="13" font-family="sans-serif" fill="#2563eb">GPU util %</text>
</svg>
