<svg xmlns="http://www.w3.org/2000/svg" width="1100" height="520" viewBox="0 0 1100 520">
<rect width="100%" height="100%" fill="#ffffff" />
<text x="550.0" y="24" text-anchor="middle" font-size="18" font-family="sans-serif">Batch size sweep, independently normalized axes</text>
<line x1="80" y1="450" x2="1010" y2="450" stroke="#333" />
<line x1="80" y1="40" x2="80" y2="450" stroke="#333" />
<text x="550.0" y="510" text-anchor="middle" font-size="13" font-family="sans-serif">batch size, log2 scale</text>
<text transform="translate(18,260.0) rotate(-90)" text-anchor="middle" font-size="13" font-family="sans-serif">normalized per metric</text>
<text x="80.0" y="485" text-anchor="middle">1</text><line x1="80.0" y1="450" x2="80.0" y2="456" stroke="#555" />
<text x="212.9" y="485" text-anchor="middle">2</text><line x1="212.9" y1="450" x2="212.9" y2="456" stroke="#555" />
<text x="345.7" y="485" text-anchor="middle">4</text><line x1="345.7" y1="450" x2="345.7" y2="456" stroke="#555" />
<text x="478.6" y="485" text-anchor="middle">8</text><line x1="478.6" y1="450" x2="478.6" y2="456" stroke="#555" />
<text x="611.4" y="485" text-anchor="middle">16</text><line x1="611.4" y1="450" x2="611.4" y2="456" stroke="#555" />
<text x="744.3" y="485" text-anchor="middle">32</text><line x1="744.3" y1="450" x2="744.3" y2="456" stroke="#555" />
<text x="877.1" y="485" text-anchor="middle">64</text><line x1="877.1" y1="450" x2="877.1" y2="456" stroke="#555" />
<text x="1010.0" y="485" text-anchor="middle">128</text><line x1="1010.0" y1="450" x2="1010.0" y2="456" stroke="#555" />
<polyline points="80.0,281.3 212.9,258.2 345.7,264.5 478.6,261.6 611.4,248.4 744.3,212.7 877.1,179.2 1010.0,93.5" fill="none" stroke="#dc2626" stroke-width="2.5" />
<circle cx="80.0" cy="281.3" r="3.5" fill="#dc2626" />
<circle cx="212.9" cy="258.2" r="3.5" fill="#dc2626" />
<circle cx="345.7" cy="264.5" r="3.5" fill="#dc2626" />
<circle cx="478.6" cy="261.6" r="3.5" fill="#dc2626" />
<circle cx="611.4" cy="248.4" r="3.5" fill="#dc2626" />
<circle cx="744.3" cy="212.7" r="3.5" fill="#dc2626" />
<circle cx="877.1" cy="179.2" r="3.5" fill="#dc2626" />
<circle cx="1010.0" cy="93.5" r="3.5" fill="#dc2626" /><polyline points="80.0,444.1 212.9,439.6 345.7,428.6 478.6,407.8 611.4,371.2 744.3,316.1 877.1,215.3 1010.0,93.5" fill="none" stroke="#16a34a" stroke-width="2.5" />
<circle cx="80.0" cy="444.1" r="3.5" fill="#16a34a" />
<circle cx="212.9" cy="439.6" r="3.5" fill="#16a34a" />
<circle cx="345.7" cy="428.6" r="3.5" fill="#16a34a" />
<circle cx="478.6" cy="407.8" r="3.5" fill="#16a34a" />
<circle cx="611.4" cy="371.2" r="3.5" fill="#16a34a" />
<circle cx="744.3" cy="316.1" r="3.5" fill="#16a34a" />
<circle cx="877.1" cy="215.3" r="3.5" fill="#16a34a" />
<circle cx="1010.0" cy="93.5" r="3.5" fill="#16a34a" /><polyline points="80.0,103.4 212.9,145.8 345.7,148.2 478.6,140.4 611.4,145.8 744.3,93.5 877.1,104.6 1010.0,114.9" fill="none" stroke="#2563eb" stroke-width="2.5" />
<circle cx="80.0" cy="103.4" r="3.5" fill="#2563eb" />
<circle cx="212.9" cy="145.8" r="3.5" fill="#2563eb" />
<circle cx="345.7" cy="148.2" r="3.5" fill="#2563eb" />
<circle cx="478.6" cy="140.4" r="3.5" fill="#2563eb" />
<circle cx="611.4" cy="145.8" r="3.5" fill="#2563eb" />
<circle cx="744.3" cy="93.5" r="3.5" fill="#2563eb" />
<circle cx="877.1" cy="104.6" r="3.5" fill="#2563eb" />
<circle cx="1010.0" cy="114.9" r="3.5" fill="#2563eb" />
<text x="870" y="58" font-size="13" font-family="sans-serif" fill="#dc2626">TPOT mean ms</text><text x="870" y="80" font-size="13" font-family="sans-serif" fill="#16a34a">Throughput tok/s</text><text x="870" y="102" font-size="13" font-family="sans-serif" fill="#2563eb">GPU util %</text>
</svg>
